<svg xmlns="http://www.w3.org/2000/svg" viewBox="0 0 284 284"><defs><style>.cls-1{fill:#754c24;}.cls-2{fill:#fff;}</style></defs><g id="圖層_2" data-name="圖層 2"><g id="圖層_1-2" data-name="圖層 1"><rect class="cls-1" x="0.5" y="0.5" width="283" height="283"/><path d="M283,1V283H1V1H283m1-1H0V284H284V0Z"/><path class="cls-2" d="M51.66,199.88h-3.5v-28c0-.64,0-1.52.09-2.65s.14-2.49.25-4.09h-.11c-.26.83-.51,1.55-.73,2.16s-.44,1.12-.62,1.53l-14.19,31.1H31.39L17.24,169c-.23-.51-.45-1.08-.67-1.73s-.42-1.39-.63-2.22H15.8q.13,1.28.18,2.88c0,1.07,0,2.25,0,3.52v28.45H12.53V159.45h4.06l14,30.82c.32.66.61,1.32.86,2s.48,1.32.66,1.94h.17c.3-.86.58-1.63.82-2.31s.49-1.28.73-1.83l14-30.62h3.89Z"/><path class="cls-2" d="M74.19,200.61q-6.52,0-10.32-4.23c-2.54-2.81-3.81-6.51-3.81-11.07q0-7.4,4-11.55t10.62-4.19q6.42,0,10.12,4.12t3.69,11.39q0,7-3.85,11.25C82,199.19,78.56,200.61,74.19,200.61Zm.19-3a9.54,9.54,0,0,0,7.8-3.3q2.71-3.3,2.72-9.19,0-6.06-2.72-9.31a9.56,9.56,0,0,0-7.74-3.24A10,10,0,0,0,66.5,176q-2.94,3.38-2.94,9.36,0,5.61,2.92,8.95A10,10,0,0,0,74.38,197.6Z"/><path class="cls-2" d="M116.47,198.16a15.09,15.09,0,0,1-8.51,2.45,13,13,0,0,1-9.92-4q-3.81-4-3.81-10.9c0-4.75,1.37-8.63,4.1-11.61a13.9,13.9,0,0,1,10.76-4.49,15.92,15.92,0,0,1,3.79.45,16.51,16.51,0,0,1,3.76,1.47l-1.41,2.65a13,13,0,0,0-3.08-1.2,14.47,14.47,0,0,0-3.23-.35,10.1,10.1,0,0,0-8.16,3.57,13.79,13.79,0,0,0-3,9.2q0,5.7,2.88,8.95a9.61,9.61,0,0,0,7.56,3.26,12.58,12.58,0,0,0,3.35-.45,12.78,12.78,0,0,0,3.38-1.55Z"/><path class="cls-2" d="M145.68,199.88h-4.85l-13.75-14.46H127v14.46h-3.41V157.14H127v27h.12l13-13.84h4.42L130.66,184.6Z"/><path class="cls-2" d="M16.08,253.77v15.4H12.53V228.74H22.82q6.34,0,9.75,3t3.41,8.8a12.64,12.64,0,0,1-3.8,9.5q-3.81,3.69-10.49,3.69Zm0-21.79V250.5h5.41q5.28,0,8-2.5a9.19,9.19,0,0,0,2.73-7.11q0-4.48-2.49-6.7c-1.66-1.47-4.19-2.21-7.57-2.21Z"/><path class="cls-2" d="M58.29,242.58a9.81,9.81,0,0,0-1.25-.34,7.12,7.12,0,0,0-1.26-.11,6.72,6.72,0,0,0-5.91,3.48c-1.48,2.32-2.21,5.4-2.21,9.24v14.32H44.27V239.59h3.39v6.32h.11a10.1,10.1,0,0,1,3.16-5,7.88,7.88,0,0,1,5.16-1.77,10.9,10.9,0,0,1,1.41.08,8.37,8.37,0,0,1,1.32.28Z"/><path class="cls-2" d="M76.69,269.9q-6.51,0-10.31-4.23t-3.81-11.08q0-7.38,4-11.54t10.62-4.19q6.42,0,10.12,4.12T91,254.37q0,7-3.85,11.25T76.69,269.9Zm.2-3c3.38,0,6-1.09,7.8-3.29s2.72-5.27,2.72-9.2-.91-7.14-2.72-9.3A9.56,9.56,0,0,0,77,241.85,10,10,0,0,0,69,245.23q-2.94,3.39-2.94,9.36c0,3.74,1,6.73,2.91,9A10,10,0,0,0,76.89,266.88Z"/><path class="cls-2" d="M119.52,263.9a11.19,11.19,0,0,1-4.26,4.42,12,12,0,0,1-6.2,1.58,11.14,11.14,0,0,1-8.92-4q-3.4-4-3.4-11,0-7.25,3.74-11.67a12.19,12.19,0,0,1,9.79-4.43,11.06,11.06,0,0,1,5.53,1.3,9.47,9.47,0,0,1,3.72,3.94h.11V226.43H123v42.74h-3.41V263.9Zm-19.28-9.19c0,3.87.86,6.87,2.6,9a8.39,8.39,0,0,0,6.81,3.18,9.22,9.22,0,0,0,7.33-3,10.94,10.94,0,0,0,2.65-7.48v-5.1a9.52,9.52,0,0,0-2.52-6.69,8.62,8.62,0,0,0-6.64-2.73,9.17,9.17,0,0,0-7.39,3.42Q100.23,248.71,100.24,254.71Z"/><path class="cls-2" d="M155.75,269.17h-3.41V264h-.12a10.87,10.87,0,0,1-3.87,4.39,10.25,10.25,0,0,1-5.54,1.47q-5.25,0-7.88-3.24t-2.64-9.76V239.59h3.44V256.2q0,5.52,1.9,8.1t5.94,2.58A7.93,7.93,0,0,0,149.9,264a11.29,11.29,0,0,0,2.44-7.57V239.59h3.41Z"/><path class="cls-2" d="M185.8,267.45a16.18,16.18,0,0,1-4.13,1.87,15.83,15.83,0,0,1-4.38.58,13,13,0,0,1-9.93-4q-3.8-4-3.8-10.9,0-7.14,4.1-11.62a13.87,13.87,0,0,1,10.75-4.48,16,16,0,0,1,3.8.45,16.23,16.23,0,0,1,3.76,1.47l-1.41,2.65a12.15,12.15,0,0,0-3.09-1.2,14.38,14.38,0,0,0-3.22-.35,10.14,10.14,0,0,0-8.17,3.56,13.83,13.83,0,0,0-3,9.21q0,5.7,2.88,9a9.58,9.58,0,0,0,7.55,3.26,12.6,12.6,0,0,0,3.36-.45,13,13,0,0,0,3.38-1.56Z"/><path class="cls-2" d="M205.71,268.66a8.35,8.35,0,0,1-2.18.82,11.63,11.63,0,0,1-2.56.25,6.38,6.38,0,0,1-4.88-1.89,7.79,7.79,0,0,1-1.78-5.52V242.58h-5.18v-3h5.18v-7.1l3.42-1.16v8.26h7.69v3h-7.69v19.29a5.84,5.84,0,0,0,1,3.76,3.41,3.41,0,0,0,2.78,1.17,6.69,6.69,0,0,0,1.79-.23,5.56,5.56,0,0,0,1.45-.62Z"/></g></g></svg>